<svg width="15" height="14" viewBox="0 0 15 14" fill="none" xmlns="http://www.w3.org/2000/svg">
<path d="M11.3431 0H9.52306C7.28306 0 5.88306 1.4 5.88306 3.64V6.475H10.2581C10.5451 6.475 10.7831 6.713 10.7831 7C10.7831 7.287 10.5451 7.525 10.2581 7.525H5.88306V10.36C5.88306 12.6 7.28306 14 9.52306 14H11.3361C13.5761 14 14.9761 12.6 14.9761 10.36V3.64C14.9831 1.4 13.5831 0 11.3431 0Z" fill="black"/>
<path d="M2.77609 6.47488L4.22509 5.0259C4.33009 4.9209 4.37909 4.7879 4.37909 4.6549C4.37909 4.5219 4.33009 4.3819 4.22509 4.2839C4.02209 4.0809 3.68609 4.0809 3.48309 4.2839L1.13809 6.62888C0.93509 6.83188 0.93509 7.16788 1.13809 7.37088L3.48309 9.71588C3.68609 9.91888 4.02209 9.91888 4.22509 9.71588C4.42809 9.51288 4.42809 9.17688 4.22509 8.97388L2.77609 7.52488H5.88409V6.47488H2.77609Z" fill="black"/>
</svg>
