<svg width="14" height="14" viewBox="0 0 14 14" fill="none" xmlns="http://www.w3.org/2000/svg">
<g clip-path="url(#clip0_0_6)">
<path d="M13.9048 0.942096C13.9039 0.901066 13.9023 0.860035 13.9008 0.818851C13.8991 0.772903 13.8977 0.727109 13.8953 0.681008C13.8905 0.588497 13.8845 0.495526 13.8767 0.402247C13.8642 0.252724 13.7454 0.134089 13.5959 0.121488C13.5026 0.113651 13.41 0.107811 13.3176 0.102894C13.2707 0.100435 13.2243 0.0990521 13.1779 0.0973617C13.1377 0.0959787 13.0972 0.0942883 13.0571 0.09352C12.99 0.0919832 12.9233 0.0915222 12.8567 0.0915222C12.8457 0.0915222 12.8345 0.0915222 12.8234 0.0916759C11.4975 0.0981301 10.2804 0.423607 9.05168 1.09454C9.03001 1.10653 9.00834 1.11774 8.98667 1.12958C8.97899 1.13388 8.97146 1.13757 8.96378 1.14187C8.96209 1.14279 8.9607 1.14433 8.95901 1.14525C7.95154 1.70677 6.94576 2.49925 5.90478 3.54023C5.78646 3.65855 5.67074 3.77842 5.55625 3.8989L3.53332 4.05272C3.47415 4.05718 3.4176 4.07869 3.37043 4.1145L0.197562 6.52914C0.0965998 6.60598 0.0531107 6.73691 0.0883015 6.85877C0.123339 6.98063 0.22968 7.06838 0.355998 7.0799L3.33308 7.34868L4.27571 8.2913C3.94162 8.36767 3.60124 8.55485 3.30973 8.84621C3.13515 9.02093 2.99501 9.21671 2.89235 9.43062C2.7582 9.71476 2.46361 10.4464 2.15165 11.2211L1.99937 11.5989C1.95326 11.7133 1.97985 11.844 2.06713 11.9312C2.12584 11.99 2.20452 12.0212 2.28458 12.0212C2.32315 12.0212 2.36218 12.0138 2.39953 11.9988L2.79093 11.841C3.55929 11.5315 4.28508 11.239 4.56983 11.1049C4.7819 11.0028 4.97783 10.8627 5.15225 10.6883C5.44361 10.3969 5.63063 10.0565 5.70701 9.72245L6.62166 10.6371L6.89043 13.614C6.90181 13.7404 6.98971 13.8467 7.11157 13.8817C7.13969 13.8899 7.16827 13.8937 7.19655 13.8937C7.2909 13.8937 7.38203 13.8502 7.44119 13.7725L9.85553 10.5998C9.89134 10.5526 9.91285 10.496 9.91731 10.4369L10.0665 8.47371C10.1982 8.34908 10.3287 8.22245 10.4579 8.09337C11.4997 7.05163 12.2926 6.04539 12.8543 5.0373C12.8549 5.03622 12.8558 5.0353 12.8564 5.03422C12.8592 5.02931 12.8615 5.02454 12.8643 5.01963C12.8899 4.97337 12.9144 4.92712 12.939 4.88071C13.5855 3.67484 13.8996 2.47805 13.9063 1.17737C13.9065 1.16461 13.9065 1.15201 13.9065 1.13926C13.9068 1.07395 13.9063 1.00818 13.9048 0.942096ZM9.9754 5.83854C9.73306 6.08088 9.41065 6.21458 9.06766 6.21458C8.72482 6.21458 8.40241 6.08104 8.15992 5.83854C7.65941 5.33788 7.65941 4.52357 8.15992 4.02291C8.66073 3.5224 9.4752 3.52271 9.9754 4.02291C10.2179 4.26525 10.3516 4.58765 10.3516 4.93065C10.3516 5.27365 10.218 5.59605 9.9754 5.83854Z" fill="black"/>
</g>
<defs>
<clipPath id="clip0_0_6">
<rect width="14" height="14" fill="white"/>
</clipPath>
</defs>
</svg>
