<svg width="12" height="14" viewBox="0 0 12 14" fill="none" xmlns="http://www.w3.org/2000/svg">
<path d="M8.65187 0H3.35523C0.706916 0 0.0483398 0.707619 0.0483398 3.53109V11.42C0.0483398 13.2836 1.07123 13.725 2.31132 12.3938L2.31833 12.3868C2.89283 11.7773 3.7686 11.8263 4.26603 12.4919L4.97365 13.4378C5.54115 14.1874 6.45895 14.1874 7.02644 13.4378L7.73406 12.4919C8.23851 11.8193 9.11427 11.7703 9.68877 12.3868C10.9359 13.718 11.9518 13.2766 11.9518 11.413V3.53109C11.9588 0.707619 11.3002 0 8.65187 0ZM7.93024 6.13036H4.07686C3.78961 6.13036 3.5514 5.89216 3.5514 5.6049C3.5514 5.31765 3.78961 5.07944 4.07686 5.07944H7.93024C8.21749 5.07944 8.4557 5.31765 8.4557 5.6049C8.4557 5.89216 8.21749 6.13036 7.93024 6.13036Z" fill="black"/>
</svg>
