<svg width="12" height="12" viewBox="0 0 12 12" fill="none" xmlns="http://www.w3.org/2000/svg">
<path d="M11.3819 8.44807C11.2379 10.0501 10.0799 11.1 8.39992 11.1H2.99997C1.34399 11.1 0 9.75606 0 8.10007V3.90012C0 2.26813 0.98399 1.12814 2.51397 0.936146C2.66997 0.912146 2.83197 0.900146 2.99997 0.900146H8.39992C8.55591 0.900146 8.70591 0.906146 8.84991 0.930146C10.2839 1.09814 11.2559 2.10013 11.3819 3.55212C11.3999 3.72612 11.2559 3.87012 11.0819 3.87012H10.1519C9.5759 3.87012 9.04191 4.09211 8.65791 4.48811C8.20192 4.93211 7.97392 5.5561 8.02792 6.18009C8.12392 7.27208 9.08391 8.13007 10.2239 8.13007H11.0819C11.2559 8.13007 11.3999 8.27407 11.3819 8.44807Z" fill="black"/>
<path d="M11.9998 5.38176V6.61774C11.9998 6.94774 11.7358 7.21774 11.3998 7.22974H10.2238C9.57583 7.22974 8.98184 6.75574 8.92784 6.10775C8.89184 5.72975 9.03584 5.37576 9.28783 5.12976C9.50983 4.90176 9.81583 4.76978 10.1518 4.76978H11.3998C11.7358 4.78178 11.9998 5.05176 11.9998 5.38176Z" fill="black"/>
</svg>
