<svg width="14" height="14" viewBox="0 0 14 14" fill="none" xmlns="http://www.w3.org/2000/svg">
<path d="M3.21875 10.7812C4.28125 11.8229 5.54167 12.3438 7 12.3438C8.45833 12.3438 9.70833 11.8229 10.75 10.7812C11.8125 9.71875 12.3438 8.45833 12.3438 7C12.3438 5.54167 11.8125 4.29167 10.75 3.25C9.70833 2.1875 8.45833 1.65625 7 1.65625C5.54167 1.65625 4.28125 2.1875 3.21875 3.25C2.17708 4.29167 1.65625 5.54167 1.65625 7C1.65625 8.45833 2.17708 9.71875 3.21875 10.7812ZM2.28125 2.3125C3.59375 1 5.16667 0.34375 7 0.34375C8.83333 0.34375 10.3958 1 11.6875 2.3125C13 3.60417 13.6562 5.16667 13.6562 7C13.6562 8.83333 13 10.4062 11.6875 11.7188C10.3958 13.0104 8.83333 13.6562 7 13.6562C5.16667 13.6562 3.59375 13.0104 2.28125 11.7188C0.989583 10.4062 0.34375 8.83333 0.34375 7C0.34375 5.16667 0.989583 3.60417 2.28125 2.3125ZM8.5 3.34375C9.04167 3.57292 9.47917 3.85417 9.8125 4.1875C10.1458 4.52083 10.4271 4.95833 10.6562 5.5C10.8854 6.04167 11 6.54167 11 7C11 7.45833 10.8854 7.95833 10.6562 8.5C10.4479 9.04167 10.1771 9.47917 9.84375 9.8125C9.07292 10.6042 8.13542 11 7.03125 11C5.92708 11 4.97917 10.6042 4.1875 9.8125L7 7V3C7.45833 3 7.95833 3.11458 8.5 3.34375Z" fill="black"/>
</svg>
