<svg width="14" height="14" viewBox="0 0 14 14" fill="none" xmlns="http://www.w3.org/2000/svg">
<path d="M3.4371 4.97116L6.77452 3.48786C6.92145 3.42489 7.08937 3.42489 7.22931 3.48786L10.5667 4.97116C10.8606 5.1041 11.1335 4.74727 10.9306 4.49538L7.43221 0.220396C7.19432 -0.0734654 6.80251 -0.0734654 6.56462 0.220396L3.06626 4.49538C2.87035 4.74727 3.14324 5.1041 3.4371 4.97116Z" fill="black"/>
<path d="M3.43756 9.02883L6.78194 10.5121C6.92887 10.5751 7.09679 10.5751 7.23673 10.5121L10.5812 9.02883C10.875 8.89589 11.1479 9.25273 10.945 9.50461L7.44663 13.7796C7.20874 14.0735 6.81693 14.0735 6.57904 13.7796L3.08072 9.50461C2.87082 9.25273 3.1367 8.89589 3.43756 9.02883Z" fill="black"/>
<path d="M6.8519 5.24328L3.96223 6.6846C3.70335 6.81054 3.70335 7.18136 3.96223 7.3073L6.8519 8.74863C6.94985 8.7976 7.06873 8.7976 7.16668 8.74863L10.0563 7.3073C10.3152 7.18136 10.3152 6.81054 10.0563 6.6846L7.16668 5.24328C7.06173 5.1943 6.94985 5.1943 6.8519 5.24328Z" fill="black"/>
</svg>
