<svg width="16" height="14" viewBox="0 0 16 14" fill="none" xmlns="http://www.w3.org/2000/svg">
<path d="M9.09469 8.78101H6.90269C5.9558 8.78101 5.38916 9.34765 5.38916 10.2945V12.4865C5.38916 13.4334 5.9558 14.0001 6.90269 14.0001H9.09469C10.0416 14.0001 10.6082 13.4334 10.6082 12.4865V10.2945C10.6082 9.34765 10.0416 8.78101 9.09469 8.78101ZM9.79554 11.7111C9.72098 11.7857 9.60914 11.8379 9.48985 11.8453H8.43858L8.44604 12.8817C8.43858 13.0084 8.39385 13.1128 8.30438 13.2023C8.22982 13.2769 8.11798 13.329 7.99869 13.329C7.75265 13.329 7.55134 13.1277 7.55134 12.8817V11.8379L6.50753 11.8453C6.26149 11.8453 6.06018 11.6366 6.06018 11.3905C6.06018 11.1445 6.26149 10.9432 6.50753 10.9432L7.55134 10.9506V9.90683C7.55134 9.66079 7.75265 9.45203 7.99869 9.45203C8.24473 9.45203 8.44604 9.66079 8.44604 9.90683L8.43858 10.9432H9.48985C9.73589 10.9432 9.9372 11.1445 9.9372 11.3905C9.92974 11.5173 9.87755 11.6217 9.79554 11.7111Z" fill="black"/>
<path d="M14.0902 11.1521C13.695 11.5174 13.2402 11.7933 12.7481 11.9797C12.256 12.1661 11.7267 11.8082 11.7267 11.2789V10.2947C11.7267 8.84081 10.5487 7.66279 9.09477 7.66279H6.90277C5.44889 7.66279 4.27087 8.84081 4.27087 10.2947V11.4727C4.27087 11.8828 3.93536 12.2183 3.52529 12.2183H3.18978C1.36311 11.9424 0.542969 10.4587 0.542969 9.13159C0.542969 7.87901 1.27364 6.49223 2.86172 6.10453C2.42183 4.36734 2.79462 2.73452 3.9279 1.54904C5.21776 0.199542 7.27556 -0.337275 9.05004 0.214454C10.6829 0.713993 11.8311 2.05604 12.2411 3.91999C13.6652 4.24059 14.8059 5.31422 15.2607 6.80538C15.7528 8.42329 15.3055 10.0859 14.0902 11.1521Z" fill="black"/>
</svg>
