<svg width="14" height="14" viewBox="0 0 14 14" fill="none" xmlns="http://www.w3.org/2000/svg">
<path d="M12.3759 8.40002H10.0239C9.0079 8.40002 8.3999 9.00802 8.3999 10.024V12.376C8.3999 13.392 9.0079 14 10.0239 14H12.3759C13.3919 14 13.9999 13.392 13.9999 12.376V10.024C13.9999 9.00802 13.3919 8.40002 12.3759 8.40002ZM12.9039 10.36L11.0079 12.576C10.9359 12.664 10.8239 12.72 10.7119 12.72C10.7039 12.72 10.7039 12.72 10.6959 12.72C10.5839 12.72 10.4799 12.68 10.3999 12.6L9.5279 11.736C9.3679 11.576 9.3679 11.312 9.5279 11.152C9.6879 10.992 9.9519 10.984 10.1119 11.152L10.6719 11.704L12.2719 9.83203C12.4239 9.65603 12.6799 9.64002 12.8559 9.78402C13.0319 9.92802 13.0479 10.192 12.9039 10.36Z" fill="black"/>
<path fill-rule="evenodd" clip-rule="evenodd" d="M9.12819 10.4518V12.3687C9.12819 12.6295 9.18035 12.8512 9.27163 13.0403H3.7882C1.41487 13.0403 0 11.6254 0 9.24555V3.7882C0 1.41487 1.41487 0 3.7882 0H9.25207C11.6254 0 13.0403 1.41487 13.0403 3.7882V9.24555V9.27163C12.8512 9.18035 12.6295 9.12819 12.3687 9.12819H10.4518C9.62372 9.12819 9.12819 9.62372 9.12819 10.4518ZM2.77106 7.49816C2.77106 7.76548 2.99274 7.98717 3.26007 7.98717C3.52739 7.98717 3.74908 7.76548 3.74908 7.49816V5.54212C3.74908 5.27479 3.52739 5.05311 3.26007 5.05311C2.99274 5.05311 2.77106 5.27479 2.77106 5.54212V7.49816ZM6.52014 7.98717C6.25281 7.98717 6.03113 7.76548 6.03113 7.49816V5.54212C6.03113 5.27479 6.25281 5.05311 6.52014 5.05311C6.78746 5.05311 7.00915 5.27479 7.00915 5.54212V7.49816C7.00915 7.76548 6.78746 7.98717 6.52014 7.98717ZM9.29119 7.49816C9.29119 7.76548 9.51288 7.98717 9.7802 7.98717C10.0475 7.98717 10.2692 7.76548 10.2692 7.49816V5.54212C10.2692 5.27479 10.0475 5.05311 9.7802 5.05311C9.51288 5.05311 9.29119 5.27479 9.29119 5.54212V7.49816Z" fill="black"/>
</svg>
