<svg width="15" height="14" viewBox="0 0 15 14" fill="none" xmlns="http://www.w3.org/2000/svg">
<path d="M6.37646 5.92379C6.37646 6.28812 6.47767 6.3421 6.70707 6.42306L7.05116 6.54451V5.39752H6.84875C6.59237 5.39752 6.37646 5.63367 6.37646 5.92379Z" fill="black"/>
<path d="M8.06323 9.1089H8.26564C8.52877 9.1089 8.73793 8.87276 8.73793 8.58264C8.73793 8.2183 8.63673 8.16432 8.40733 8.08336L8.06323 7.96191V9.1089Z" fill="black"/>
<path d="M12.6715 2.85399L11.2884 4.23713C11.1872 4.33833 11.059 4.38556 10.9308 4.38556C10.8026 4.38556 10.6744 4.33833 10.5732 4.23713C10.3775 4.04146 10.3775 3.71761 10.5732 3.52195L11.9563 2.13881C10.7689 1.12677 9.23729 0.506042 7.55729 0.506042C3.83295 0.506042 0.810303 3.52869 0.810303 7.25303C0.810303 10.9774 3.83295 14 7.55729 14C11.2816 14 14.3043 10.9774 14.3043 7.25303C14.3043 5.57303 13.6836 4.04146 12.6715 2.85399ZM8.73801 7.13158C9.16982 7.28676 9.75006 7.59713 9.75006 8.58893C9.75006 9.43231 9.08211 10.1272 8.26572 10.1272H8.06331V10.2959C8.06331 10.5725 7.83392 10.8019 7.55729 10.8019C7.28066 10.8019 7.05127 10.5725 7.05127 10.2959V10.1272H6.99729C6.09994 10.1272 5.36452 9.37158 5.36452 8.4405C5.36452 8.15713 5.59392 7.92773 5.87054 7.92773C6.14717 7.92773 6.37657 8.15713 6.37657 8.43375C6.37657 8.80484 6.65319 9.10845 6.99729 9.10845H7.05127V7.61062L6.37657 7.37448C5.94476 7.21929 5.36452 6.90893 5.36452 5.91713C5.36452 5.07375 6.03247 4.37881 6.84886 4.37881H7.05127V4.21689C7.05127 3.94026 7.28066 3.71086 7.55729 3.71086C7.83392 3.71086 8.06331 3.94026 8.06331 4.21689V4.38556H8.11729C9.01464 4.38556 9.75006 5.14122 9.75006 6.07231C9.75006 6.34893 9.52066 6.57833 9.24404 6.57833C8.96741 6.57833 8.73801 6.34893 8.73801 6.07231C8.73801 5.70122 8.46139 5.39761 8.11729 5.39761H8.06331V6.89544L8.73801 7.13158Z" fill="black"/>
<path d="M14.77 0.310361C14.716 0.188916 14.6215 0.0877108 14.4933 0.0337349C14.4326 0.0134939 14.3719 0 14.3044 0H11.6056C11.329 0 11.0996 0.229398 11.0996 0.506024C11.0996 0.782651 11.329 1.01205 11.6056 1.01205H13.0832L11.9565 2.1388C12.2129 2.36145 12.449 2.59759 12.6717 2.85398L13.7984 1.72723V3.20482C13.7984 3.48145 14.0278 3.71084 14.3044 3.71084C14.5811 3.71084 14.8105 3.48145 14.8105 3.20482V0.506024C14.8105 0.438554 14.797 0.377831 14.77 0.310361Z" fill="black"/>
</svg>
